<?xml version="1.0" standalone="no"?>
<!DOCTYPE svg PUBLIC "-//W3C//DTD SVG 20010904//EN"
 "http://www.w3.org/TR/2001/REC-SVG-20010904/DTD/svg10.dtd">
<svg version="1.0" xmlns="http://www.w3.org/2000/svg"
 width="453.000000pt" height="71.000000pt" viewBox="0 0 453.000000 71.000000"
 preserveAspectRatio="xMidYMid meet">
<metadata>
Created by potrace 1.16, written by Peter Selinger 2001-2019
</metadata>
<g transform="translate(0.000000,71.000000) scale(0.100000,-0.100000)"
fill="#000000" stroke="none">
<path d="M119 648 c0 -2 -18 -75 -38 -163 -35 -148 -37 -161 -20 -167 16 -6
15 -13 -8 -110 -13 -57 -27 -115 -30 -130 l-5 -28 313 0 314 0 28 60 29 60 58
0 c65 0 70 -5 70 -76 l0 -44 100 0 100 0 0 30 c0 16 -5 74 -11 130 -11 93 -13
100 -34 100 -21 0 -22 6 -34 133 -7 72 -15 149 -18 170 l-6 37 -97 0 -97 0
-91 -162 c-79 -142 -88 -163 -71 -166 20 -4 26 -27 9 -37 -5 -3 -35 -53 -65
-110 -74 -138 -88 -148 -60 -45 8 30 15 58 15 63 0 4 -50 7 -111 7 l-111 0 6
26 c19 72 19 84 2 84 -21 0 -21 0 19 171 19 82 35 154 35 159 0 8 -188 16
-191 8z"/>
<path d="M1141 608 c-36 -139 -67 -289 -60 -294 5 -3 14 -2 19 1 15 9 12 -12
-15 -126 -14 -57 -27 -112 -29 -122 -4 -16 4 -18 94 -16 l99 1 28 119 27 119
102 0 c58 0 106 4 109 10 3 6 -3 10 -15 10 -18 0 -21 4 -16 28 3 15 8 44 12
65 l6 37 -102 0 c-101 0 -102 0 -96 23 3 12 6 25 6 30 0 4 51 7 114 7 l113 0
17 68 c9 37 16 70 16 75 0 4 -94 7 -209 7 l-208 0 -12 -42z"/>
<path d="M1610 641 c0 -5 24 -75 54 -157 43 -119 58 -150 74 -152 37 -6 36
-18 -23 -259 -5 -23 -4 -23 94 -23 l99 0 20 88 c11 48 23 104 27 125 4 20 12
40 18 44 6 4 4 9 -7 13 -16 5 -13 13 25 61 25 30 53 66 64 80 11 15 48 61 83
103 34 42 62 78 62 81 0 3 -47 5 -104 5 l-104 0 -55 -76 c-30 -42 -58 -71 -61
-66 -3 6 -15 40 -26 76 l-21 66 -109 0 c-61 0 -110 -4 -110 -9z"/>
<path d="M2475 632 c-91 -30 -165 -127 -165 -216 0 -38 27 -86 48 -86 10 0 37
-9 60 -20 22 -11 47 -20 54 -20 7 0 32 -9 56 -20 80 -36 44 -86 -56 -78 -49 4
-60 9 -88 41 -20 24 -40 37 -56 37 -22 0 -26 -7 -41 -73 -10 -39 -17 -77 -17
-84 0 -7 32 -22 71 -34 90 -27 220 -24 289 8 76 35 133 104 151 182 9 42 2 61
-22 61 -10 0 -19 7 -19 14 0 24 -60 62 -140 88 -79 26 -99 49 -64 75 38 28
140 6 166 -36 8 -13 23 -21 39 -21 25 0 28 5 44 75 9 41 14 79 10 85 -23 37
-230 52 -320 22z"/>
<path d="M3620 641 c-52 -17 -112 -53 -149 -90 -43 -43 -97 -146 -107 -203 -6
-34 -4 -38 15 -38 19 0 21 -6 21 -58 0 -80 31 -139 90 -172 62 -34 201 -36
272 -3 63 29 144 106 174 165 28 56 30 68 8 68 -13 0 -14 7 -8 43 15 81 6 158
-24 206 -38 63 -87 85 -187 88 -44 1 -91 -1 -105 -6z m101 -152 c20 -20 21
-29 16 -100 -4 -64 -2 -79 9 -79 20 0 17 -17 -7 -57 -25 -39 -72 -67 -100 -58
-23 8 -39 43 -39 86 0 23 -4 29 -21 29 -19 0 -21 4 -14 38 14 77 78 161 123
162 6 0 22 -10 33 -21z"/>
<path d="M2840 503 c-18 -76 -34 -148 -37 -160 -4 -17 -1 -23 11 -23 21 0 20
-11 -9 -136 -14 -58 -25 -108 -25 -110 0 -3 44 -3 97 -2 l98 3 25 110 25 110
59 3 c52 3 57 1 52 -15 -9 -29 -46 -193 -46 -203 0 -6 41 -10 94 -10 81 0 95
2 100 18 10 34 46 202 46 217 0 8 -7 15 -15 15 -8 0 -15 3 -15 6 0 4 16 73 35
155 19 82 35 152 35 155 0 2 -44 3 -97 2 l-97 -3 -20 -92 -21 -93 -56 0 -57 0
14 58 c7 31 16 74 20 95 l7 37 -96 0 -95 0 -32 -137z"/>
<path d="M4051 493 c-19 -82 -36 -154 -39 -160 -2 -7 3 -13 12 -13 21 0 20
-11 -9 -136 -14 -58 -25 -108 -25 -110 0 -2 43 -4 95 -4 l94 0 10 38 c6 20 11
42 11 47 0 6 5 26 10 46 10 35 12 37 66 44 69 8 127 28 161 55 20 15 22 20 9
20 -14 0 -13 6 9 34 55 72 68 165 30 223 -33 49 -85 63 -250 63 l-151 0 -33
-147z"/>
</g>
</svg>
